<?xml version="1.0" standalone="no"?>
<!DOCTYPE svg PUBLIC "-//W3C//DTD SVG 1.1//EN" "http://www.w3.org/Graphics/SVG/1.1/DTD/svg11.dtd" >
<svg xmlns="http://www.w3.org/2000/svg">
<metadata>
This is a custom SVG webfont generated by Font Squirrel.
Copyright   : Copyright c 2008 by Neil Summerour All rights reserved
Designer    : Neil Summerour
Foundry     : Neil Summerour
Foundry URL : wwwtypetrustcom
</metadata>
<defs>
<font id="webfontaxKbW8om" horiz-adv-x="1329" >
<font-face units-per-em="2048" ascent="1638" descent="-410" />
<missing-glyph horiz-adv-x="581" />
<glyph unicode=" "  horiz-adv-x="581" />
<glyph unicode="&#x09;" horiz-adv-x="581" />
<glyph unicode="&#xa0;" horiz-adv-x="581" />
<glyph unicode="!" horiz-adv-x="618" d="M223 1430h172v-646l-20 -389h-129l-23 389v646zM424 96q0 -47 -34 -80.5t-81 -33.5t-80.5 33.5t-33.5 80.5t33.5 81t80.5 34t81 -34t34 -81z" />
<glyph unicode="&#x22;" horiz-adv-x="772" d="M639 1427v-327h-164v327q0 33 24.5 56.5t57.5 23.5t57.5 -23.5t24.5 -56.5zM297 1427v-327h-162v327q0 33 23.5 56.5t56.5 23.5t57.5 -23.5t24.5 -56.5z" />
<glyph unicode="#" horiz-adv-x="1447" d="M1081 1006h254l-28 -134h-254l-70 -315h256l-29 -133h-254l-92 -424h-135l90 424h-317l-92 -424h-136l93 424h-256l30 133h254l66 315h-252l29 134h254l92 424h135l-92 -424h317l92 424h138zM850 557l68 315h-320l-68 -315h320z" />
<glyph unicode="$" horiz-adv-x="1089" d="M991 463q0 -150 -107.5 -244t-260.5 -110v-109h-129v111q-145 14 -249 92t-143 215l134 33q49 -176 258 -201v444q-168 39 -262.5 106.5t-94.5 207.5q0 141 104.5 219t252.5 88v115h129v-115q207 -23 315 -195l-107 -78q-66 109 -208 136v-375q80 -20 137 -43t114.5 -62 t87 -98t29.5 -137zM494 836v342q-88 -6 -153 -47t-65 -123q0 -39 17.5 -69t52.5 -49.5t66 -29.5t82 -24zM850 461q0 84 -60.5 127t-166.5 71v-411q96 10 161.5 65.5t65.5 147.5z" />
<glyph unicode="%" horiz-adv-x="1658" d="M1548 379q0 -168 -73.5 -283.5t-229 -115.5t-229.5 115.5t-74 283.5t74 284.5t229.5 116.5t229 -116.5t73.5 -284.5zM1071 1430h152l-635 -1430h-154zM717 1051q0 -170 -74 -286t-229.5 -116t-229 116t-73.5 286q0 168 73.5 283.5t229 115.5t229.5 -115.5t74 -283.5z M1421 378.5q0 276.5 -176 276.5q-178 0 -178 -276.5t178 -276.5q176 0 176 276.5zM590 1051q0 276 -176 276t-176 -276q0 -279 176 -279t176 279z" />
<glyph unicode="&#x26;" horiz-adv-x="1386" d="M1241 90l-100 -106l-160 141q-162 -145 -422 -145q-193 0 -320.5 105t-127.5 292q0 143 65.5 240.5t206.5 187.5q-72 104 -105.5 175t-33.5 155q0 139 89 224t226 85t223 -84t86 -219q0 -117 -72.5 -203t-205.5 -170q160 -215 377 -422q88 133 92 311h151 q-4 -252 -133 -419l77 -70zM715 1141q0 70 -43 116t-113 46q-74 0 -120 -47.5t-46 -118.5q0 -106 115 -260q51 33 77.5 53t62.5 54t51.5 73t15.5 84zM874 236q-221 211 -401 452q-104 -66 -153.5 -134.5t-49.5 -172.5q0 -123 91.5 -190.5t216.5 -67.5q169 0 296 113z" />
<glyph unicode="'" horiz-adv-x="452" d="M307 1427v-327h-164v327q0 33 25 56.5t57.5 23.5t57 -23.5t24.5 -56.5z" />
<glyph unicode="(" horiz-adv-x="724" d="M137 715q0 195 82 386t232 329h172q-170 -145 -256 -336t-86 -379q0 -186 85 -374.5t255 -340.5h-170q-152 135 -233 326.5t-81 388.5z" />
<glyph unicode=")" horiz-adv-x="724" d="M623 715q0 -197 -82 -388.5t-234 -326.5h-170q170 152 255 340t85 375q0 188 -86 378.5t-254 336.5h170q150 -137 233 -328.5t83 -386.5z" />
<glyph unicode="*" horiz-adv-x="927" d="M788 1260l37 -121l-274 -80l176 -228l-102 -73l-162 237l-160 -237l-102 73l174 228l-275 80l39 121l271 -99l-9 287h125l-8 -287z" />
<glyph unicode="+" horiz-adv-x="1052" d="M956 633v-144h-358v-358h-143v358h-359v144h359v356h143v-356h358z" />
<glyph unicode="," horiz-adv-x="438" d="M340 100v-100l-152 -270h-69v370q0 47 31.5 81t74.5 34q49 0 82 -34t33 -81z" />
<glyph unicode="-" horiz-adv-x="821" d="M692 621v-129h-563v129h563z" />
<glyph unicode="." horiz-adv-x="532" d="M383 102q0 -49 -34 -82.5t-83 -33.5q-47 0 -81.5 33.5t-34.5 82.5q0 47 34.5 81t81.5 34q49 0 83 -34t34 -81z" />
<glyph unicode="/" horiz-adv-x="870" d="M692 1585h150l-664 -1741h-149z" />
<glyph unicode="0" horiz-adv-x="1196" d="M1094 717q0 -104 -14.5 -201.5t-49.5 -196t-89 -171t-142 -117.5t-199 -45q-139 0 -240.5 66.5t-154.5 178t-78 232.5t-25 252q0 133 25 252.5t78 231.5t154.5 178.5t240.5 66.5q137 0 238.5 -66.5t153.5 -177t77 -230.5t25 -253zM930 715q0 72 -6 138.5t-26.5 150 t-54.5 143t-96.5 101.5t-146.5 42q-104 0 -176 -58t-103.5 -155.5t-44 -182.5t-12.5 -179q0 -92 12.5 -177t44 -183.5t103.5 -158t176.5 -59.5t175 59.5t101 158t42 182.5t11.5 178z" />
<glyph unicode="1" horiz-adv-x="774" d="M537 1430v-1430h-160v1225l-225 -152l-76 121l336 236h125z" />
<glyph unicode="2" horiz-adv-x="1128" d="M1016 154v-154h-891v111q23 119 73 220t112.5 169.5t133 128t137 107.5t121 95.5t87 103.5t32.5 122q0 111 -81 173t-195 62q-88 0 -162 -49t-119 -131l-137 78q139 256 416 256q195 0 318.5 -103.5t123.5 -287.5q0 -84 -30.5 -156t-82 -125t-114.5 -101l-132 -101 q-69 -52 -130.5 -108t-112.5 -136t-76 -174h709z" />
<glyph unicode="3" horiz-adv-x="1081" d="M979 410q0 -190 -128 -307t-321 -117q-328 0 -432 284l146 60q33 -90 108.5 -140.5t175.5 -50.5q123 0 207 75t84 196q0 141 -91 205.5t-239 66.5v125q131 2 213 60.5t82 185.5q0 102 -81.5 170.5t-188.5 68.5q-88 0 -157.5 -47t-102.5 -127l-143 62q117 266 409 266 q176 0 299 -110.5t123 -282.5q0 -215 -192 -305q106 -43 167.5 -132t61.5 -206z" />
<glyph unicode="4" horiz-adv-x="1124" d="M1032 502v-150h-129v-352h-151v352h-674v144l588 934h170l-580 -928h496v506l151 -21v-485h129z" />
<glyph unicode="5" horiz-adv-x="1101" d="M1008 485q0 -223 -124 -359t-347 -136q-156 0 -264.5 78.5t-159.5 222.5l149 47q35 -90 106.5 -142.5t170.5 -52.5q150 0 230.5 97.5t80.5 244.5q0 143 -80 238.5t-229 95.5q-139 0 -246 -102h-145v713h759v-152h-614v-399q111 86 252 86q217 0 339 -132.5t122 -347.5z " />
<glyph unicode="6" horiz-adv-x="1112" d="M1018 440q0 -201 -126 -327.5t-327 -126.5q-211 0 -339 147.5t-128 362.5q0 274 129 522t351 412h196q-391 -293 -491 -693q102 166 295 166q197 0 318.5 -132t121.5 -331zM860 444q0 131 -83 220.5t-214 89.5q-125 0 -212 -91.5t-87 -216.5q0 -123 89 -212t212 -89 q125 0 210 87t85 212z" />
<glyph unicode="7" horiz-adv-x="1019" d="M946 1430v-138q-219 -276 -335.5 -581t-112.5 -711h-172q0 731 442 1278h-555v-119h-139v271h872z" />
<glyph unicode="8" horiz-adv-x="1107" d="M1016 414q0 -195 -131 -312.5t-332 -117.5t-330 117.5t-129 312.5q0 117 60.5 210t181.5 144q-94 39 -144.5 124t-50.5 175q0 166 120 272.5t292 106.5t293 -106.5t121 -272.5q0 -90 -49.5 -174t-147.5 -125q246 -104 246 -354zM809 1063q0 102 -76 169.5t-180 67.5 q-102 0 -179 -67.5t-77 -169.5q0 -109 72.5 -173.5t183.5 -64.5t183.5 64.5t72.5 173.5zM852 418q0 127 -85 201.5t-214 74.5t-213 -74.5t-84 -201.5q0 -121 88 -200t209 -79q125 0 212 78t87 201z" />
<glyph unicode="9" horiz-adv-x="1091" d="M993 934q0 -268 -120.5 -517t-346.5 -417h-204q186 145 312 308t175 382q-94 -147 -283 -147q-190 0 -314 127t-124 315q0 197 126 329t323 132q211 0 333.5 -148.5t122.5 -363.5zM823 995q0 121 -85 209t-207.5 88t-205.5 -89t-83 -210t84 -209t206 -88q127 0 209 87 t82 212z" />
<glyph unicode=":" horiz-adv-x="532" d="M383 729q0 -47 -34 -82t-83 -35q-47 0 -81.5 35t-34.5 82q0 49 34.5 84t81.5 35q49 0 83 -35t34 -84zM383 98q0 -49 -34 -82.5t-83 -33.5q-47 0 -81.5 33.5t-34.5 82.5q0 47 34.5 82t81.5 35q49 0 83 -35t34 -82z" />
<glyph unicode=";" horiz-adv-x="466" d="M340 729q0 -47 -33 -82t-78 -35t-77.5 35t-32.5 82q0 49 32.5 84t77.5 35t78 -35t33 -84zM340 100v-102l-152 -268h-69v370q0 45 31.5 79t74.5 34q49 0 82 -33t33 -80z" />
<glyph unicode="&#x3c;" horiz-adv-x="1009" d="M696 1430h197l-588 -715l588 -715h-197l-590 715z" />
<glyph unicode="=" horiz-adv-x="1083" d="M967 813v-139h-850v139h850zM967 389v-141h-850v141h850z" />
<glyph unicode="&#x3e;" horiz-adv-x="1009" d="M315 1430l588 -715l-588 -715h-196l588 715l-588 715h196z" />
<glyph unicode="?" horiz-adv-x="1032" d="M932 1067q0 -111 -49 -172t-133 -109q-92 -51 -131 -101t-44 -130l-10 -172h-108q-14 143 -15 174q0 92 31 157.5t62.5 92.5t89.5 61q2 2 23.5 14.5t25.5 14.5t21.5 13.5t21.5 16.5t18.5 16t17.5 18.5t12 20.5t11 25.5t5 28t3 31.5q0 111 -76.5 174.5t-193.5 63.5 q-111 0 -192.5 -59.5t-88.5 -174.5h-143q6 178 129 276.5t295 98.5q180 0 299 -102.5t119 -276.5zM627 94q0 -47 -34 -79.5t-81 -32.5t-80 32.5t-33 79.5q0 45 33 78t80 33t81 -33t34 -78z" />
<glyph unicode="@" horiz-adv-x="1486" d="M1350 836q0 -51 -19.5 -149.5t-21.5 -121.5l-37 -569l-131 8l12 211q-150 -240 -356 -240q-150 0 -231 115t-81 270q0 135 60.5 281.5t179.5 254.5t258 108t219 -164q6 111 -22.5 213t-105.5 178t-189 76q-133 0 -255 -82t-203 -206t-128 -267.5t-47 -268.5 q0 -258 162 -401l-70 -102q-111 86 -166 221t-55 286q0 150 57.5 316t154.5 306t242.5 232.5t305.5 92.5q225 0 346 -177t121 -421zM1165 604q0 96 -46 183t-134 87q-102 0 -189 -90t-131 -206.5t-44 -215t42 -178.5t132 -80q100 0 189 88.5t135 203t46 208.5z" />
<glyph unicode="A" horiz-adv-x="1304" d="M737 1430l549 -1430h-174l-154 410h-612l-153 -410h-175l549 1430h170zM399 553h504l-252 668z" />
<glyph unicode="B" horiz-adv-x="1263" d="M1178 406q0 -213 -134.5 -309.5t-359.5 -96.5h-534v1430h499q215 0 344 -94.5t129 -297.5q0 -199 -178 -295q119 -47 176.5 -136.5t57.5 -200.5zM963 1038q0 238 -312 238h-338v-479h344q141 0 223.5 52t82.5 189zM1014 403q0 254 -330 254h-371v-501h371q72 0 125 10 t102.5 34.5t76 75.5t26.5 127z" />
<glyph unicode="C" horiz-adv-x="1212" d="M1020 324l117 -109q-106 -127 -206 -180t-253.5 -53t-270 60t-185 164.5t-101.5 232.5t-33 276q0 150 33 276.5t100.5 231t184 165t270.5 60.5q147 0 251.5 -53.5t205.5 -169.5l-117 -111q-78 88 -154 130t-186 42q-121 0 -207 -50t-131 -137t-64.5 -181.5t-19.5 -203 t19.5 -202.5t64.5 -181t131 -137.5t207 -50.5q111 0 188.5 44.5t155.5 136.5z" />
<glyph unicode="D" horiz-adv-x="1302" d="M1188 715q0 -164 -11.5 -267.5t-48 -197.5t-106.5 -143.5t-183.5 -78t-281.5 -28.5h-407v1430h407q168 0 281.5 -29t183.5 -78t106.5 -143.5t48 -197.5t11.5 -267zM1024 715q0 119 -1 171t-13.5 130t-38.5 121q-43 70 -134.5 101.5t-250.5 31.5h-273v-1108h273 q160 0 251 31.5t134 103.5q27 43 39 117.5t13 127t1 173.5z" />
<glyph unicode="E" horiz-adv-x="1181" d="M1079 160v-160h-929v1430h929v-160h-766v-455h670v-153h-670v-502h766z" />
<glyph unicode="F" horiz-adv-x="1140" d="M1059 1430v-160h-748v-455h670v-151h-670v-664h-161v1430h909z" />
<glyph unicode="G" horiz-adv-x="1280" d="M672 758h487v-758h-141v209q-100 -227 -359 -227q-152 0 -265 61t-177.5 166.5t-96.5 232.5t-32 272.5t33 273.5t99.5 233.5t181 166t266.5 60.5q150 0 252 -56.5t200 -179.5l-116 -104q-76 92 -151 135t-185 43q-121 0 -207 -50t-129 -137t-61.5 -180.5t-18.5 -203.5 q0 -86 10 -161t38 -152.5t73 -133t119.5 -90.5t171.5 -35q94 0 162.5 39t104.5 108.5t52 148.5t16 173h-327v146z" />
<glyph unicode="H" horiz-adv-x="1347" d="M1198 1430v-1430h-164v662h-721v-662h-163v1430h163v-615h721v615h164z" />
<glyph unicode="I" horiz-adv-x="509" d="M336 1430v-1430h-164v1430h164z" />
<glyph unicode="J" horiz-adv-x="1110" d="M967 1430v-992q0 -223 -117 -337.5t-346 -114.5q-352 0 -449 327l158 43q63 -211 291 -211q158 0 229.5 73t71.5 224v988h162z" />
<glyph unicode="K" horiz-adv-x="1175" d="M1073 1430l-557 -709l610 -721h-200l-594 719l557 711h184zM313 0h-163v1430h163v-1430z" />
<glyph unicode="L" horiz-adv-x="1062" d="M995 154v-154h-845v1430h161v-1276h684z" />
<glyph unicode="M" horiz-adv-x="1513" d="M1372 1430v-1430h-164v1022l-391 -1022h-123l-391 1020v-1020h-164v1430h162l455 -1188l458 1188h158z" />
<glyph unicode="N" horiz-adv-x="1300" d="M1151 1430v-1430h-147l-691 1112v-1112h-163v1430h149l688 -1113v1113h164z" />
<glyph unicode="O" d="M1241 714.5q0 -147.5 -30.5 -274.5t-96 -232.5t-181.5 -165.5t-269.5 -60t-268 60t-180 165.5t-96.5 232.5t-31 274.5t31 274.5t96.5 232.5t180 166t268 60.5t269.5 -60.5t181.5 -166t96 -232.5t30.5 -274.5zM1077 714.5q0 110.5 -17.5 203t-60.5 180.5t-128 138t-207 50 q-98 0 -173 -34.5t-119 -89t-72 -132.5t-38 -153.5t-10 -161.5t10 -162t38 -153.5t72 -132t118.5 -89.5t173.5 -35q123 0 207.5 50.5t127.5 138.5t60.5 180t17.5 202.5z" />
<glyph unicode="P" horiz-adv-x="1234" d="M1159 1024q0 -403 -469 -403h-377v-621h-163v1430h536q219 0 346 -97.5t127 -308.5zM995 1024q0 143 -84 195.5t-229 52.5h-369v-500h369q145 0 229 54.5t84 197.5z" />
<glyph unicode="Q" d="M1241 715q0 -334 -137 -516l160 -199h-201l-72 88q-147 -106 -327 -106q-152 0 -266.5 61t-180 166.5t-97.5 232.5t-32 273q0 150 32 276.5t97.5 231t180 165t266.5 60.5q156 0 271.5 -61.5t180 -167t95 -231.5t30.5 -273zM1077 715q0 111 -17.5 203t-59.5 179t-128 137 t-206.5 50t-206.5 -50t-129 -136t-60.5 -178.5t-17.5 -202.5q0 -106 18.5 -198.5t61.5 -178.5t127 -136t203 -50q115 0 206 69q-96 98 -204 113v131q182 -25 321 -148q92 142 92 396z" />
<glyph unicode="R" horiz-adv-x="1247" d="M1116 1028q0 -156 -93 -254t-267 -125q51 -37 100 -121l324 -528h-191l-299 504q-39 66 -79 98.5t-107 32.5h-191v-635h-163v1430h499q213 0 340 -99.5t127 -302.5zM952 1028q0 244 -303 244h-336v-492h336q303 0 303 248z" />
<glyph unicode="S" horiz-adv-x="1239" d="M1155 408q0 -197 -150.5 -311.5t-359.5 -114.5q-465 0 -557 383l156 30q66 -260 401 -260q135 0 241.5 70.5t106.5 202.5q0 80 -47 133t-122.5 81.5t-167 50t-182.5 48.5t-167 64.5t-123 110.5t-47 175q0 180 136.5 276.5t328.5 96.5q180 0 302 -68.5t200 -220.5 l-141 -65q-59 109 -145.5 154.5t-215.5 45.5q-117 0 -210 -52t-93 -167q0 -78 63.5 -130t158.5 -73.5t206 -54.5t206 -70.5t158.5 -123.5t63.5 -211z" />
<glyph unicode="T" horiz-adv-x="1148" d="M1100 1430v-160h-443v-1270h-163v1270h-443v160h1049z" />
<glyph unicode="U" horiz-adv-x="1316" d="M1184 1430v-828q0 -621 -524.5 -620.5t-524.5 620.5v828h162v-820q0 -100 14.5 -177t51 -146.5t111.5 -107.5t185.5 -38t185.5 37t110.5 107.5t50 146.5t14.5 178v820h164z" />
<glyph unicode="V" horiz-adv-x="1198" d="M995 1430h170l-483 -1430h-166l-483 1430h170l397 -1190z" />
<glyph unicode="W" horiz-adv-x="1669" d="M1456 1430h166l-334 -1430h-184l-270 1120l-271 -1120h-182l-334 1430h166l264 -1160l285 1160h143l287 -1160z" />
<glyph unicode="X" horiz-adv-x="1247" d="M717 737l481 -737h-194l-379 596l-383 -596h-193l479 737l-452 693h196l353 -553l350 553h194z" />
<glyph unicode="Y" horiz-adv-x="1202" d="M975 1430h182l-473 -957v-473h-164v473l-473 957h182l373 -771z" />
<glyph unicode="Z" horiz-adv-x="1198" d="M1092 162v-162h-1004v131l782 1139h-718v160h931v-140l-778 -1128h787z" />
<glyph unicode="[" horiz-adv-x="614" d="M512 -39v-100h-358v1708h358v-101h-215v-1507h215z" />
<glyph unicode="\" horiz-adv-x="870" d="M178 1585l664 -1741h-150l-663 1741h149z" />
<glyph unicode="]" horiz-adv-x="614" d="M485 1569v-1708h-360v100h215v1507h-215v101h360z" />
<glyph unicode="^" horiz-adv-x="1099" d="M621 1438l374 -611l-123 -65l-321 530l-326 -530l-121 65l377 611h140z" />
<glyph unicode="_" horiz-adv-x="1075" d="M1028 0v-129h-981v129h981z" />
<glyph unicode="`" horiz-adv-x="655" d="M330 1409l174 -313h-125l-225 313h176z" />
<glyph unicode="a" horiz-adv-x="976" d="M854 166l35 -150l-133 -32l-27 100q-129 -106 -289 -107q-154 0 -255 81t-101 227q0 135 92 212.5t252 82.5h154q90 4 127 45v82q0 74 -62.5 118.5t-140.5 44.5q-184 0 -242 -133l-133 45q86 227 379 228q133 0 238.5 -82t105.5 -209v-553zM709 219v279q-59 -33 -119 -33 h-152q-88 -2 -150.5 -47t-62.5 -133q0 -86 66.5 -131t152.5 -45q146 -1 265 110z" />
<glyph unicode="b" horiz-adv-x="1021" d="M940 498q0 -231 -95 -373.5t-313 -142.5q-186 0 -258 127l-6 -109h-129v1430h154v-537q88 119 250 119q211 0 304 -143.5t93 -370.5zM786 496q0 72 -9 128t-32.5 114.5t-79 91t-135.5 32.5q-100 0 -168.5 -59.5t-68.5 -157.5v-297q0 -98 68.5 -157.5t168.5 -59.5 q66 0 114 22.5t74.5 57.5t43 86t20.5 96.5t4 102.5z" />
<glyph unicode="c" horiz-adv-x="972" d="M893 846l-111 -103q-113 123 -241 123q-160 0 -228.5 -104.5t-68.5 -265.5q0 -160 68.5 -264.5t228.5 -104.5q129 0 241 123l111 -103q-82 -88 -160 -125.5t-192 -37.5q-219 0 -338 143t-119 368.5t119 371t338 145.5q113 0 191.5 -40t160.5 -126z" />
<glyph unicode="d" horiz-adv-x="1038" d="M924 18l-138 -38l-26 116q-92 -115 -266 -114q-410 0 -410 516q0 150 36 259t131 182t245 73q156 0 235 -113v531h156v-1254q0 -2 17.5 -78t19.5 -80zM731 348v297q0 98 -67.5 157.5t-167.5 59.5q-82 0 -136.5 -31.5t-79 -90t-32.5 -114t-8 -129t8 -130t32.5 -114.5 t78 -90t135.5 -32q100 0 168.5 59.5t68.5 157.5z" />
<glyph unicode="e" horiz-adv-x="995" d="M911 541v-74h-667q10 -342 299 -342q152 0 243 102l101 -94q-145 -152 -344 -151q-227 0 -343 141t-116 373q0 229 110.5 371.5t331.5 142.5q186 0 285.5 -130t99.5 -339zM244 573h522q-14 293 -246 293q-249 0 -276 -293z" />
<glyph unicode="f" horiz-adv-x="626" d="M575 1430v-130q-123 -8 -173 -66t-50 -185v-56h195v-133h-195v-860h-149v860h-101v133h101v88q0 166 86.5 252.5t285.5 96.5z" />
<glyph unicode="g" horiz-adv-x="1013" d="M850 666q0 -164 -97.5 -250t-269.5 -86q-53 0 -112 14q-94 -59 -95 -137q0 -57 72 -57q59 0 172 26.5t170 26.5q109 0 180.5 -62.5t71.5 -165.5q0 -164 -142.5 -267t-318.5 -103q-160 0 -282.5 70.5t-122.5 209.5q0 41 12 78l137 -43q-4 -20 -4 -33q0 -70 80 -107.5 t168 -37.5q117 0 221.5 61.5t104.5 165.5q0 51 -39 79t-88 28q-53 0 -152.5 -21.5t-150.5 -21.5q-90 0 -152.5 40t-62.5 117q0 113 108 203q-135 84 -135 275q0 170 94 256t268 86q158 0 246 -68q61 29 68 96h131q-8 -143 -117 -196q37 -84 37 -176zM702 668q0 201 -215 200 q-217 0 -217 -200q0 -205 215 -205q217 0 217 205z" />
<glyph unicode="h" horiz-adv-x="1048" d="M940 563v-563h-154v563q0 297 -256 297q-86 0 -161.5 -58.5t-75.5 -146.5v-655h-154v1430h154v-541q41 63 111.5 94t144.5 31q201 0 296 -121t95 -330z" />
<glyph unicode="i" horiz-adv-x="471" d="M344 1348q0 -43 -31.5 -75t-77 -32t-76 32t-30.5 75q0 45 30.5 76.5t76 31.5t77 -31.5t31.5 -76.5zM311 993v-993h-153v993h153z" />
<glyph unicode="j" horiz-adv-x="471" d="M348 1348q0 -43 -31.5 -75t-76.5 -32t-77 32t-32 75q0 45 32 76.5t77 31.5t76.5 -31.5t31.5 -76.5zM313 993v-1052q0 -168 -83 -268.5t-250 -114.5l-41 135q223 18 223 258v1042h151z" />
<glyph unicode="k" horiz-adv-x="919" d="M461 537l432 -537h-174l-422 535l358 458h166zM285 1430v-1430h-150v1430h150z" />
<glyph unicode="l" horiz-adv-x="464" d="M391 135l2 -133q-131 4 -194.5 62.5t-63.5 183.5v1182h148v-1182q-1 -105 108 -113z" />
<glyph unicode="m" horiz-adv-x="1597" d="M1481 563v-563h-156v563q0 137 -46 217t-177 80q-217 0 -217 -317v-543h-156v563q0 135 -47 216t-178 81q-82 0 -146.5 -59.5t-64.5 -136.5v-664h-154v993h131l4 -110q41 66 104.5 98.5t129.5 32.5q207 0 307 -180q86 180 287 180q197 0 288 -122t91 -329z" />
<glyph unicode="n" horiz-adv-x="1058" d="M940 563v-563h-154v559q0 145 -56 223t-200 78q-98 0 -167.5 -66.5t-69.5 -150.5v-643h-154v993h131l4 -110q88 131 263 131q403 0 403 -451z" />
<glyph unicode="o" horiz-adv-x="1028" d="M946 496q0 -236 -103.5 -375t-328.5 -139t-327.5 138t-102.5 375.5t102.5 377t327.5 139.5t328.5 -139t103.5 -377zM788 496q0 61 -6 109t-23.5 98.5t-47 83t-79.5 54t-118 21.5t-118 -21.5t-79.5 -54t-47 -83t-23.5 -98.5t-6 -109q0 -78 10 -136.5t37.5 -114t85 -85 t141.5 -29.5q158 0 216 100.5t58 264.5z" />
<glyph unicode="p" horiz-adv-x="1021" d="M940 494q0 -229 -96 -370.5t-314 -141.5q-152 0 -237 118v-551h-154v1444h131l4 -116q90 139 258 139q217 0 312.5 -145.5t95.5 -376.5zM786 494q0 74 -9 129t-33.5 113.5t-78 90t-135.5 31.5q-94 0 -165.5 -65.5t-71.5 -149.5v-295q0 -88 70.5 -152.5t166.5 -64.5 q82 0 135.5 32t78 90t33.5 113.5t9 127.5z" />
<glyph unicode="q" horiz-adv-x="1024" d="M782 1008l138 -37l-35 -152v-1270h-156v545q-92 -113 -235 -112q-150 0 -245 72.5t-131 182t-36 259.5q0 111 20.5 199.5t65.5 163.5t128 116t196 41q166 0 266 -125zM729 348v295q0 92 -69.5 154.5t-165.5 62.5q-82 0 -136.5 -31.5t-79 -90t-32.5 -115t-8 -130t9 -130 t33.5 -113.5t79 -89t136.5 -32q96 0 164.5 63.5t68.5 155.5z" />
<glyph unicode="r" horiz-adv-x="794" d="M731 963l-61 -125q-72 29 -131 28q-100 0 -173 -63.5t-73 -155.5v-647h-154v993h131l4 -119q37 66 111 102t154 36q100 0 192 -49z" />
<glyph unicode="s" horiz-adv-x="935" d="M862 285q0 -141 -112.5 -222t-264.5 -81q-340 0 -403 258l137 34q47 -154 264 -153q86 0 156 38t70 120q0 57 -45.5 96t-111.5 56l-145 40q-79 23 -145.5 48.5t-112 81.5t-45.5 138q0 133 99.5 203t247.5 70q129 0 214 -42t148 -145l-121 -65q-72 113 -229 112 q-47 0 -88 -9t-78 -40.5t-37 -83.5q0 -59 62.5 -93t150.5 -54.5t176 -47t150.5 -92t62.5 -167.5z" />
<glyph unicode="t" horiz-adv-x="610" d="M518 993v-133h-160v-602q0 -68 29 -95.5t96 -29.5v-133h-57q-111 0 -166 67.5t-55 178.5v614h-139v133h139v289h153v-289h160z" />
<glyph unicode="u" horiz-adv-x="1052" d="M920 993v-993h-132l-4 104q-111 -121 -260 -120q-406 0 -405 432v577h153v-569q0 -143 54.5 -217t199.5 -74q88 0 164 57.5t76 147.5v655h154z" />
<glyph unicode="v" horiz-adv-x="983" d="M772 993h168l-379 -993h-141l-377 993h166l278 -786z" />
<glyph unicode="w" horiz-adv-x="1533" d="M1329 993h164l-319 -993h-144l-266 745l-264 -745h-144l-315 993h166l225 -770l268 770h129l267 -772z" />
<glyph unicode="x" horiz-adv-x="970" d="M575 510l355 -510h-187l-258 385l-256 -385h-190l356 510l-338 483h191l237 -352l238 352h188z" />
<glyph unicode="y" horiz-adv-x="987" d="M780 993h164l-467 -1237q-43 -117 -120.5 -163t-202.5 -46h-29v136h27q82 0 122.5 28.5t65.5 91.5l72 193l-369 997h166l283 -800z" />
<glyph unicode="z" horiz-adv-x="964" d="M864 147v-147h-778v135l576 711h-537v147h739v-131l-579 -715h579z" />
<glyph unicode="{" horiz-adv-x="733" d="M102 782q53 -2 88 13.5t52.5 35t24.5 65.5t7 77t-2 97.5t-2 100.5q0 203 77 300.5t284 97.5v-131q-119 0 -169 -60.5t-50 -212.5q0 -31 2 -92t3 -95t-5 -83t-21.5 -79t-48.5 -58.5t-80 -42.5q47 -14 80 -43t48.5 -58.5t21.5 -79t5 -83t-3 -95t-2 -92.5q0 -152 50 -212 t169 -60v-131q-207 0 -284 97t-77 300q0 35 2 101.5t2 97t-7 77t-24.5 65.5t-52 34.5t-88.5 13.5v135z" />
<glyph unicode="|" horiz-adv-x="538" d="M340 1585v-1741h-141v1741h141z" />
<glyph unicode="}" horiz-adv-x="733" d="M631 782v-135q-53 2 -88 -13.5t-52.5 -34.5t-24.5 -65.5t-7 -77t2 -97t2 -101.5q0 -203 -77 -300t-284 -97v131q117 0 167 60.5t50 211.5q0 29 -2 91.5t-2 96t6.5 84t21.5 79t47 57t79 43.5q-47 14 -79 42.5t-47 57.5t-21.5 79t-6.5 84t2 96.5t2 90.5q0 152 -50 212.5 t-167 60.5v131q207 0 284 -97.5t77 -300.5q0 -35 -2 -101t-2 -97t7 -77t24.5 -65.5t52.5 -35t88 -13.5z" />
<glyph unicode="~" horiz-adv-x="1001" d="M807 702l96 -81q-57 -70 -109.5 -107t-123.5 -37q-76 0 -173.5 66.5t-162.5 66.5q-74 0 -141 -94l-95 84q100 137 236 137q78 0 173 -64.5t159 -64.5q84 0 141 94z" />
<glyph unicode="&#xa1;" horiz-adv-x="655" d="M424 881q0 -49 -34 -83t-81 -34t-80.5 33.5t-33.5 83.5q0 47 33.5 80.5t80.5 33.5t81 -33.5t34 -80.5zM375 582l20 -392v-645h-172v645l21 392h131z" />
<glyph unicode="&#xa2;" horiz-adv-x="1032" d="M819 252l111 -102q-84 -86 -162 -125t-190 -39q-49 0 -101 14l-35 -164l-88 17l37 167q-137 59 -203.5 186.5t-66.5 289.5q0 225 122 368.5t353 143.5l31 145l88 -16l-29 -146q129 -29 244 -149l-111 -101q-74 78 -164 103l-147 -699q45 -14 90 -14q117 10 221 121z M420 170l147 694q-287 -23 -286 -368q0 -228 139 -326z" />
<glyph unicode="&#xa3;" horiz-adv-x="1091" d="M989 147v-147h-827v121q117 180 117 332q0 80 -23 186h-166l31 145h104q-37 147 -37 238q0 184 109 302t295 118q131 0 209 -43t174 -146l-117 -98q-61 72 -119.5 105.5t-146.5 33.5q-123 0 -185.5 -78.5t-62.5 -201.5q0 -55 33 -230h270l-33 -145h-208q25 -115 24 -201 q0 -139 -72 -291h631z" />
<glyph unicode="&#xa4;" horiz-adv-x="1333" d="M1128 283l107 -117q-92 -100 -181 -142t-229 -42q-225 0 -372.5 136t-194.5 367h-158l25 119h115q-6 82 -2 178h-138l25 117h129q37 248 181.5 398.5t389.5 150.5q131 0 225.5 -42t180.5 -134l-109 -119q-133 133 -297 133q-170 0 -270 -105.5t-129 -281.5h467l-25 -117 h-465q-2 -106 5 -178h485l-25 -119h-438q39 -160 140.5 -251t254.5 -91q168 1 303 140z" />
<glyph unicode="&#xa5;" horiz-adv-x="1181" d="M983 1430h154l-324 -654h178l-26 -121h-211l-74 -151h311l-26 -121h-303v-383h-140v383h-332l27 121h289l-76 151h-240l27 121h154l-324 654h156l389 -797z" />
<glyph unicode="&#xa6;" horiz-adv-x="655" d="M391 1585v-780h-121v780h121zM391 627v-779h-121v779h121z" />
<glyph unicode="&#xa7;" horiz-adv-x="1132" d="M1008 465q0 -162 -127 -275q86 -92 86 -225q0 -164 -113 -265t-281 -101q-270 0 -409 280l129 68q106 -205 280 -205q104 0 173 62.5t69 160.5q0 41 -15.5 73t-36 52.5t-61 37.5t-69.5 26l-80 22q-74 18 -126 35.5t-111.5 50.5t-97.5 72t-62.5 99.5t-24.5 135.5 q0 166 129 277q-88 88 -88 223q0 164 112.5 266.5t280.5 102.5q270 0 410 -281l-129 -67q-104 203 -281 202q-104 0 -172.5 -62.5t-68.5 -160.5q0 -49 19 -85t62.5 -59.5t78 -35.5t100.5 -29q94 -25 157.5 -49.5t131 -68.5t101.5 -113.5t34 -163.5zM856 465q0 106 -87 163.5 t-228 92.5q-86 18 -158 49q-100 -70 -100 -201q0 -106 87 -163.5t228 -92.5q90 -18 160 -47q98 68 98 199z" />
<glyph unicode="&#xa8;" horiz-adv-x="987" d="M793 1212q0 -45 -30 -74.5t-73 -29.5q-45 0 -75.5 29.5t-30.5 74.5q0 43 30.5 74t75.5 31q43 0 73 -31t30 -74zM406 1212q0 -45 -31 -74.5t-74 -29.5q-45 0 -74.5 29.5t-29.5 74.5q0 43 29.5 74t74.5 31q43 0 74 -31t31 -74z" />
<glyph unicode="&#xa9;" horiz-adv-x="1634" d="M1538 713q0 -297 -212 -508t-509 -211t-509 211t-212 508q0 299 211 510t510 211t510 -211t211 -510zM1423 713q0 252 -177 429t-429 177q-250 0 -428 -177t-178 -429q0 -250 178 -427t428 -177q252 0 429 177t177 427zM997 508l72 -68q-57 -66 -109.5 -93.5 t-132.5 -27.5q-160 0 -239.5 113t-79.5 281q0 170 79 283.5t238 113.5q141 0 242 -117l-72 -69q-80 86 -170 86q-117 0 -165 -88t-48 -209q0 -119 48.5 -206t164.5 -87q98 0 172 88z" />
<glyph unicode="&#xaa;" horiz-adv-x="845" d="M723 743l29 -81l-117 -35l-25 61q-109 -72 -223 -72q-125 0 -208 66t-83 184q0 111 75 174.5t206 67.5h117q76 0 102 25v67q0 57 -48 92t-108 35q-145 0 -192 -108l-117 34q80 195 311 195q106 0 193.5 -67.5t87.5 -170.5v-467zM575 502v-105h-299v105h299zM596 825v201 q-47 -20 -94 -20q-106 0 -121 -2q-68 -2 -116 -35t-48 -97q0 -66 51 -100.5t121 -34.5q113 0 207 88z" />
<glyph unicode="&#xab;" horiz-adv-x="1042" d="M106 465v108l429 408v-170l-308 -291l308 -293v-172zM498 465v108l428 408v-170l-310 -291l310 -293v-172z" />
<glyph unicode="&#xac;" horiz-adv-x="1075" d="M967 602v-418h-117v297h-752v121h869z" />
<glyph unicode="&#xad;" horiz-adv-x="821" d="M692 621v-129h-563v129h563z" />
<glyph unicode="&#xae;" horiz-adv-x="1634" d="M1538 713q0 -297 -212 -508t-509 -211t-509 211t-212 508q0 299 211 510t510 211t510 -211t211 -510zM1423 713q0 252 -177 429t-429 177q-250 0 -428 -177t-178 -429q0 -250 178 -427t428 -177q252 0 429 177t177 427zM1124 336h-123l-145 250q-41 76 -104 76h-88v-326 h-99v758h269q117 0 185 -55.5t68 -164.5q0 -78 -45 -135t-131 -69q43 -51 213 -334zM989 872q0 125 -153 125h-172v-252h172q153 0 153 127z" />
<glyph unicode="&#xaf;" horiz-adv-x="1050" d="M823 1262v-119h-596v119h596z" />
<glyph unicode="&#xb0;" horiz-adv-x="651" d="M530 1354q0 -86 -60 -146.5t-146 -60.5q-84 0 -144.5 60.5t-60.5 146.5q0 84 60.5 144.5t144.5 60.5q86 0 146 -60.5t60 -144.5zM444 1354q0 47 -35.5 83t-84.5 36q-47 0 -82 -36t-35 -83q0 -49 34.5 -85t82.5 -36q49 0 84.5 36t35.5 85z" />
<glyph unicode="&#xb1;" horiz-adv-x="1087" d="M969 705v-132h-359v-354h-133v354h-358v132h358v356h133v-356h359zM969 129v-129h-850v129h850z" />
<glyph unicode="&#xb2;" horiz-adv-x="716" d="M645 631v-99h-567v72q18 102 71.5 184t115 131.5t120.5 91.5t98 89t39 102q0 72 -52 112t-126 40q-113 0 -176 -117l-86 51q88 162 262 162q123 0 202 -65.5t79 -182.5q0 -74 -37 -131t-92 -100l-114 -86q-58 -43 -111.5 -108.5t-73.5 -145.5h448z" />
<glyph unicode="&#xb3;" horiz-adv-x="686" d="M621 793q0 -121 -81 -195t-202 -74q-211 0 -277 181l95 36q45 -121 178 -120q78 0 132 48t54 124q0 90 -58.5 131t-152.5 41v79q188 4 189 156q0 66 -52.5 110t-119.5 44q-117 0 -166 -111l-90 39q74 168 262 168q111 0 188.5 -69.5t77.5 -180.5q0 -135 -121 -192 q66 -27 105 -84t39 -131z" />
<glyph unicode="&#xb4;" horiz-adv-x="632" d="M315 1409h177l-226 -313h-125z" />
<glyph unicode="&#xb5;" horiz-adv-x="1126" d="M958 993v-993h-137v96q-109 -111 -254 -110q-188 0 -270 129v-512h-137v1390h137v-561q0 -154 58.5 -234.5t211.5 -80.5q94 0 174 60.5t80 152.5v663h137z" />
<glyph unicode="&#x3bc;" horiz-adv-x="1126" d="M958 993v-993h-137v96q-109 -111 -254 -110q-188 0 -270 129v-512h-137v1390h137v-561q0 -154 58.5 -234.5t211.5 -80.5q94 0 174 60.5t80 152.5v663h137z" />
<glyph unicode="&#xb6;" horiz-adv-x="1081" d="M895 1430v-1737h-141v1597h-107v-1597h-141v928q-170 10 -281.5 125.5t-111.5 275.5q0 170 120.5 289t292.5 119h369z" />
<glyph unicode="&#xb7;" horiz-adv-x="540" d="M399 542.5q0 -53.5 -37.5 -91t-93.5 -37.5q-53 0 -90 37.5t-37 91t37 91.5t90 38q55 0 93 -38t38 -91.5z" />
<glyph unicode="&#x2219;" horiz-adv-x="540" d="M399 542.5q0 -53.5 -37.5 -91t-93.5 -37.5q-53 0 -90 37.5t-37 91t37 91.5t90 38q55 0 93 -38t38 -91.5z" />
<glyph unicode="&#xb8;" horiz-adv-x="1044" d="M584 55l75 -196l-143 -265h-160l193 273l-66 153z" />
<glyph unicode="&#xb9;" horiz-adv-x="491" d="M340 1440v-908h-100v779l-144 -97l-49 76l213 150h80z" />
<glyph unicode="&#xba;" horiz-adv-x="897" d="M799 1032q0 -416 -350.5 -416t-350.5 416q0 190 84 303t266.5 113t266.5 -113t84 -303zM600 502v-105h-297v105h297zM666 1030q0 61 -8.5 107.5t-30 90.5t-66.5 67.5t-112.5 23.5t-112.5 -23.5t-66.5 -67.5t-30 -90t-8.5 -108q0 -82 14.5 -139t64.5 -101.5t138.5 -44.5 t138.5 44.5t64.5 101.5t14.5 139z" />
<glyph unicode="&#xbb;" horiz-adv-x="1042" d="M926 573v-108l-428 -410v172l307 293l-307 291v170zM532 573v-108l-426 -410v172l310 293l-310 291v170z" />
<glyph unicode="&#xbc;" horiz-adv-x="1574" d="M1477 334v-117h-58v-215h-119v215h-370v100l340 566h139l-330 -549h252l6 260l82 -16v-244h58zM1016 1430h123l-635 -1428h-123zM408 1440v-881h-115v717l-143 -84l-58 98l250 150h66z" />
<glyph unicode="&#xbd;" horiz-adv-x="1652" d="M1534 119v-117h-520v92q61 162 205 305q115 113 155.5 168.5t40.5 94.5q0 57 -40 82.5t-89 25.5q-86 0 -153 -119l-105 54q100 180 258 180q98 0 173 -59.5t75 -163.5q0 -70 -47 -137.5t-170 -188.5q-80 -76 -158 -217h375zM1016 1430h123l-633 -1428h-125zM410 1440 v-881h-115v717l-145 -84l-58 98l252 150h66z" />
<glyph unicode="&#xbe;" horiz-adv-x="1720" d="M1622 334v-117h-57v-215h-119v215h-371v100l340 566h139l-327 -549h250l6 260l82 -16v-244h57zM1161 1430h125l-637 -1428h-123zM635 813q0 -109 -78 -185.5t-188 -76.5q-90 0 -158 51t-100 139l112 37q18 -47 56 -78.5t90 -31.5q61 0 105 43t44 102q0 61 -44 106.5 t-105 45.5h-47v100h38q61 0 101.5 41t40.5 96q0 51 -42 89t-100 38q-47 0 -82.5 -27.5t-54.5 -72.5l-112 39q31 84 98 130t151 46q106 0 183.5 -70.5t77.5 -171.5q0 -102 -99 -182q113 -86 113 -207z" />
<glyph unicode="&#xbf;" horiz-adv-x="1032" d="M90 -90q2 -178 119 -278.5t299 -102.5q170 0 294 98.5t130 280.5l-144 -2q-6 -113 -89 -174.5t-191 -61.5q-117 0 -194.5 64.5t-75.5 173.5q0 23 4 42t7 31.5t16 28.5l19 23q5 6 26.5 20.5t24.5 17.5t31.5 18t30.5 17q57 37 89 64t63 91.5t31 154.5l-13 180h-112 l-11 -176q-2 -78 -40.5 -129t-131.5 -103q-55 -31 -87.5 -58.5t-63.5 -85.5t-31 -134zM621 883q0 -47 -33 -80t-80 -33t-79 33t-32 80t32 79.5t79 32.5t80 -32.5t33 -79.5z" />
<glyph unicode="&#xc0;" horiz-adv-x="1304" d="M737 1430l549 -1430h-174l-154 410h-612l-153 -410h-175l549 1430h170zM399 553h504l-252 668zM518 1862l172 -314h-123l-225 314h176z" />
<glyph unicode="&#xc1;" horiz-adv-x="1304" d="M737 1430l549 -1430h-174l-154 410h-612l-153 -410h-175l549 1430h170zM399 553h504l-252 668zM782 1862h176l-223 -314h-127z" />
<glyph unicode="&#xc2;" horiz-adv-x="1304" d="M737 1430l549 -1430h-174l-154 410h-612l-153 -410h-175l549 1430h170zM399 553h504l-252 668zM723 1855l231 -305h-161l-144 219l-139 -219h-160l228 305h145z" />
<glyph unicode="&#xc3;" horiz-adv-x="1304" d="M737 1430l549 -1430h-174l-154 410h-612l-153 -410h-175l549 1430h170zM399 553h504l-252 668zM885 1747l86 -76q-47 -61 -88 -92t-103 -31q-63 0 -132.5 54.5t-119.5 54.5q-59 0 -110 -76l-84 76q41 61 85 91t107.5 30t133 -54.5t116.5 -54.5q60 0 109 78z" />
<glyph unicode="&#xc4;" horiz-adv-x="1304" d="M737 1430l549 -1430h-174l-154 410h-612l-153 -410h-175l549 1430h170zM399 553h504l-252 668zM950 1665q0 -43 -30.5 -73.5t-71.5 -30.5q-45 0 -76 29.5t-31 74.5q0 43 31 73.5t76 30.5q41 0 71.5 -30.5t30.5 -73.5zM563 1665q0 -45 -30.5 -74.5t-73.5 -29.5 q-45 0 -75 29.5t-30 74.5q0 43 30 73.5t75 30.5q43 0 73.5 -30.5t30.5 -73.5z" />
<glyph unicode="&#xc5;" horiz-adv-x="1304" d="M737 1430l549 -1430h-174l-154 410h-612l-153 -410h-175l549 1430h170zM399 553h504l-252 668zM872 1769.5q0 -90.5 -64.5 -156t-154.5 -65.5q-92 0 -156.5 65.5t-64.5 156t64.5 155t156.5 64.5q90 0 154.5 -64.5t64.5 -155zM758 1769.5q0 45.5 -31 76t-74 30.5 q-45 0 -76.5 -30.5t-31.5 -76t31.5 -76t76.5 -30.5q43 0 74 30.5t31 76z" />
<glyph unicode="&#xc6;" horiz-adv-x="1896" d="M1798 160v-160h-878v410h-486l-225 -410h-184l798 1430h975v-160h-715v-451h621v-157h-621v-502h715zM512 553h408v688h-27z" />
<glyph unicode="&#xc7;" horiz-adv-x="1284" d="M1055 334l116 -101q-184 -221 -391 -245l60 -142l-135 -254h-162l180 263l-55 129q-145 8 -254 71.5t-170.5 168t-91 227t-29.5 264.5q0 150 33.5 277.5t101.5 232t183.5 164t269.5 59.5q147 0 251.5 -62.5t208.5 -189.5l-116 -100q-82 98 -157 144t-187 46 q-98 0 -175 -33.5t-123 -89t-75 -132.5t-40 -152.5t-11 -163.5q0 -111 19.5 -204t63.5 -180t131 -137.5t210 -50.5q113 0 188.5 47.5t155.5 143.5z" />
<glyph unicode="&#xc8;" horiz-adv-x="1181" d="M1079 160v-160h-929v1430h929v-160h-766v-455h670v-153h-670v-502h766zM592 1862l174 -314h-125l-225 314h176z" />
<glyph unicode="&#xc9;" horiz-adv-x="1181" d="M1079 160v-160h-929v1430h929v-160h-766v-455h670v-153h-670v-502h766zM590 1862h176l-225 -314h-125z" />
<glyph unicode="&#xca;" horiz-adv-x="1181" d="M1079 160v-160h-929v1430h929v-160h-766v-455h670v-153h-670v-502h766zM688 1855l230 -305h-162l-142 219l-141 -219h-160l228 305h147z" />
<glyph unicode="&#xcb;" horiz-adv-x="1181" d="M1079 160v-160h-929v1430h929v-160h-766v-455h670v-153h-670v-502h766zM889 1665q0 -45 -31 -74.5t-74 -29.5t-73.5 29.5t-30.5 74.5q0 43 30.5 73.5t73.5 30.5t74 -30.5t31 -73.5zM500 1665q0 -45 -31 -74.5t-74 -29.5t-73.5 29.5t-30.5 74.5q0 43 30.5 73.5t73.5 30.5 t74 -30.5t31 -73.5z" />
<glyph unicode="&#xcc;" horiz-adv-x="509" d="M336 1430v-1430h-164v1430h164zM125 1862l172 -314h-125l-225 314h178z" />
<glyph unicode="&#xcd;" horiz-adv-x="509" d="M336 1430v-1430h-164v1430h164zM338 1862h176l-223 -314h-127z" />
<glyph unicode="&#xce;" horiz-adv-x="509" d="M336 1430v-1430h-164v1430h164zM328 1855l229 -305h-160l-143 219l-141 -219h-160l229 305h146z" />
<glyph unicode="&#xcf;" horiz-adv-x="509" d="M336 1430v-1430h-164v1430h164zM555 1665q0 -45 -30.5 -74.5t-73.5 -29.5t-74 29.5t-31 74.5q0 43 31 73.5t74 30.5t73.5 -30.5t30.5 -73.5zM166 1665q0 -45 -31 -74.5t-74 -29.5t-73.5 29.5t-30.5 74.5q0 43 30.5 73.5t73.5 30.5t74 -30.5t31 -73.5z" />
<glyph unicode="&#xd0;" horiz-adv-x="1339" d="M1208 715q0 -211 -16 -320q-14 -100 -52 -172.5t-89.5 -116t-127 -68t-147 -31.5t-168.5 -7h-436v647h-86v127h86v656h436q96 0 168 -7.5t147.5 -32t127 -66.5t89.5 -114.5t52 -173.5q16 -108 16 -321zM1044 715q0 188 -14 286q-10 74 -37.5 125.5t-62.5 79t-92.5 43 t-105.5 18.5t-124 3h-274v-496h305v-127h-305v-485h274q100 0 159.5 7t121 31.5t95.5 81t46 146.5q14 101 14 287z" />
<glyph unicode="&#xd1;" horiz-adv-x="1300" d="M1151 1430v-1430h-147l-691 1112v-1112h-163v1430h149l688 -1113v1113h164zM883 1747l86 -76q-47 -61 -89 -92t-103.5 -31t-132.5 54.5t-118 54.5q-59 0 -110 -76l-84 76q41 61 85 91t107.5 30t133 -54.5t116.5 -54.5q60 0 109 78z" />
<glyph unicode="&#xd2;" d="M1241 714.5q0 -147.5 -30.5 -274.5t-96 -232.5t-181.5 -165.5t-269.5 -60t-268 60t-180 165.5t-96.5 232.5t-31 274.5t31 274.5t96.5 232.5t180 166t268 60.5t269.5 -60.5t181.5 -166t96 -232.5t30.5 -274.5zM1077 714.5q0 110.5 -17.5 203t-60.5 180.5t-128 138t-207 50 q-98 0 -173 -34.5t-119 -89t-72 -132.5t-38 -153.5t-10 -161.5t10 -162t38 -153.5t72 -132t118.5 -89.5t173.5 -35q123 0 207.5 50.5t127.5 138.5t60.5 180t17.5 202.5zM666 1862l172 -314h-123l-226 314h177z" />
<glyph unicode="&#xd3;" d="M1241 714.5q0 -147.5 -30.5 -274.5t-96 -232.5t-181.5 -165.5t-269.5 -60t-268 60t-180 165.5t-96.5 232.5t-31 274.5t31 274.5t96.5 232.5t180 166t268 60.5t269.5 -60.5t181.5 -166t96 -232.5t30.5 -274.5zM1077 714.5q0 110.5 -17.5 203t-60.5 180.5t-128 138t-207 50 q-98 0 -173 -34.5t-119 -89t-72 -132.5t-38 -153.5t-10 -161.5t10 -162t38 -153.5t72 -132t118.5 -89.5t173.5 -35q123 0 207.5 50.5t127.5 138.5t60.5 180t17.5 202.5zM664 1862h174l-224 -314h-125z" />
<glyph unicode="&#xd4;" d="M1241 714.5q0 -147.5 -30.5 -274.5t-96 -232.5t-181.5 -165.5t-269.5 -60t-268 60t-180 165.5t-96.5 232.5t-31 274.5t31 274.5t96.5 232.5t180 166t268 60.5t269.5 -60.5t181.5 -166t96 -232.5t30.5 -274.5zM1077 714.5q0 110.5 -17.5 203t-60.5 180.5t-128 138t-207 50 q-98 0 -173 -34.5t-119 -89t-72 -132.5t-38 -153.5t-10 -161.5t10 -162t38 -153.5t72 -132t118.5 -89.5t173.5 -35q123 0 207.5 50.5t127.5 138.5t60.5 180t17.5 202.5zM735 1855l232 -305h-162l-143 219l-140 -219h-160l228 305h145z" />
<glyph unicode="&#xd5;" d="M1241 714.5q0 -147.5 -30.5 -274.5t-96 -232.5t-181.5 -165.5t-269.5 -60t-268 60t-180 165.5t-96.5 232.5t-31 274.5t31 274.5t96.5 232.5t180 166t268 60.5t269.5 -60.5t181.5 -166t96 -232.5t30.5 -274.5zM1077 714.5q0 110.5 -17.5 203t-60.5 180.5t-128 138t-207 50 q-98 0 -173 -34.5t-119 -89t-72 -132.5t-38 -153.5t-10 -161.5t10 -162t38 -153.5t72 -132t118.5 -89.5t173.5 -35q123 0 207.5 50.5t127.5 138.5t60.5 180t17.5 202.5zM897 1747l86 -76q-47 -61 -89 -92t-103.5 -31t-131 54.5t-118.5 54.5q-59 0 -111 -76l-84 76 q41 61 85 91t107.5 30t133 -54.5t116.5 -54.5q60 0 109 78z" />
<glyph unicode="&#xd6;" d="M1241 714.5q0 -147.5 -30.5 -274.5t-96 -232.5t-181.5 -165.5t-269.5 -60t-268 60t-180 165.5t-96.5 232.5t-31 274.5t31 274.5t96.5 232.5t180 166t268 60.5t269.5 -60.5t181.5 -166t96 -232.5t30.5 -274.5zM1077 714.5q0 110.5 -17.5 203t-60.5 180.5t-128 138t-207 50 q-98 0 -173 -34.5t-119 -89t-72 -132.5t-38 -153.5t-10 -161.5t10 -162t38 -153.5t72 -132t118.5 -89.5t173.5 -35q123 0 207.5 50.5t127.5 138.5t60.5 180t17.5 202.5zM963 1665q0 -43 -31 -73.5t-72 -30.5q-45 0 -75.5 29.5t-30.5 74.5q0 43 30.5 73.5t75.5 30.5 q41 0 72 -30.5t31 -73.5zM575 1665q0 -43 -30.5 -73.5t-73.5 -30.5q-45 0 -74.5 29.5t-29.5 74.5q0 43 29.5 73.5t74.5 30.5q41 0 72.5 -30.5t31.5 -73.5z" />
<glyph unicode="&#xd7;" horiz-adv-x="950" d="M567 561l256 -258l-90 -90l-260 256l-256 -256l-92 90l258 258l-258 256l92 92l256 -258l260 258l90 -92z" />
<glyph unicode="&#xd8;" d="M1241 715q0 -147 -30.5 -274.5t-96 -233t-181.5 -165.5t-269 -60q-156 0 -287 77l-35 -69h-141l75 141q-188 205 -188 584q0 147 31 274t96.5 232.5t180 166t268.5 60.5q152 0 282 -72l33 64h141l-73 -135q194 -203 194 -590zM1077 715q0 272 -112 428l-512 -938 q94 -61 211 -62q123 0 207.5 50.5t127.5 138.5t60.5 180t17.5 203zM358 293l512 938q-92 55 -206 55q-412 0 -412 -571q0 -262 106 -422z" />
<glyph unicode="&#xd9;" horiz-adv-x="1316" d="M1184 1430v-828q0 -621 -524.5 -620.5t-524.5 620.5v828h162v-820q0 -100 14.5 -177t51 -146.5t111.5 -107.5t185.5 -38t185.5 37t110.5 107.5t50 146.5t14.5 178v820h164zM659 1862l175 -314h-125l-226 314h176z" />
<glyph unicode="&#xda;" horiz-adv-x="1316" d="M1184 1430v-828q0 -621 -524.5 -620.5t-524.5 620.5v828h162v-820q0 -100 14.5 -177t51 -146.5t111.5 -107.5t185.5 -38t185.5 37t110.5 107.5t50 146.5t14.5 178v820h164zM657 1862h177l-226 -314h-125z" />
<glyph unicode="&#xdb;" horiz-adv-x="1316" d="M1184 1430v-828q0 -621 -524.5 -620.5t-524.5 620.5v828h162v-820q0 -100 14.5 -177t51 -146.5t111.5 -107.5t185.5 -38t185.5 37t110.5 107.5t50 146.5t14.5 178v820h164zM731 1855l230 -305h-160l-144 219l-141 -219h-160l230 305h145z" />
<glyph unicode="&#xdc;" horiz-adv-x="1316" d="M1184 1430v-828q0 -621 -524.5 -620.5t-524.5 620.5v828h162v-820q0 -100 14.5 -177t51 -146.5t111.5 -107.5t185.5 -38t185.5 37t110.5 107.5t50 146.5t14.5 178v820h164zM956 1665q0 -45 -29.5 -74.5t-72.5 -29.5q-45 0 -75.5 29.5t-30.5 74.5q0 43 30.5 73.5 t75.5 30.5q43 0 72.5 -30.5t29.5 -73.5zM569 1665q0 -45 -30.5 -74.5t-73.5 -29.5q-45 0 -75 29.5t-30 74.5q0 43 30 73.5t75 30.5q43 0 73.5 -30.5t30.5 -73.5z" />
<glyph unicode="&#xdd;" horiz-adv-x="1202" d="M975 1430h182l-473 -957v-473h-164v473l-473 957h182l373 -771zM600 1862h176l-225 -314h-125z" />
<glyph unicode="&#xde;" horiz-adv-x="1284" d="M1192 737q0 -403 -485 -403h-371v-334h-164v1430h164v-287h371q485 0 485 -406zM1028 737.5q0 98.5 -46 154.5t-111.5 72.5t-163.5 16.5h-371v-487h371q98 0 163.5 16t111.5 72.5t46 155z" />
<glyph unicode="&#xdf;" horiz-adv-x="1310" d="M1239 285q0 -141 -112.5 -222t-264.5 -81q-342 0 -403 258l137 34q47 -154 264 -153q84 0 154.5 38t70.5 120q0 57 -45 96t-112.5 56.5t-145 40t-145.5 48t-113 81.5t-45 138q0 111 74 175.5t186 80.5q-4 293 -225 293q-227 0 -227 -305v-983h-152v991q0 201 93.5 325 t285.5 124q186 0 280.5 -119t98.5 -313q195 -18 295 -183l-121 -65q-70 113 -229 112q-47 0 -88 -9t-78 -40.5t-37 -83.5q0 -59 62.5 -93t150.5 -54.5t177 -47t151.5 -92t62.5 -167.5z" />
<glyph unicode="&#xe0;" horiz-adv-x="976" d="M854 166l35 -150l-133 -32l-27 100q-129 -106 -289 -107q-154 0 -255 81t-101 227q0 135 92 212.5t252 82.5h154q90 4 127 45v82q0 74 -62.5 118.5t-140.5 44.5q-184 0 -242 -133l-133 45q86 227 379 228q133 0 238.5 -82t105.5 -209v-553zM709 219v279q-59 -33 -119 -33 h-152q-88 -2 -150.5 -47t-62.5 -133q0 -86 66.5 -131t152.5 -45q146 -1 265 110zM489 1409l175 -313h-125l-226 313h176z" />
<glyph unicode="&#xe1;" horiz-adv-x="976" d="M854 166l35 -150l-133 -32l-27 100q-129 -106 -289 -107q-154 0 -255 81t-101 227q0 135 92 212.5t252 82.5h154q90 4 127 45v82q0 74 -62.5 118.5t-140.5 44.5q-184 0 -242 -133l-133 45q86 227 379 228q133 0 238.5 -82t105.5 -209v-553zM709 219v279q-59 -33 -119 -33 h-152q-88 -2 -150.5 -47t-62.5 -133q0 -86 66.5 -131t152.5 -45q146 -1 265 110zM487 1409h177l-226 -313h-125z" />
<glyph unicode="&#xe2;" horiz-adv-x="976" d="M854 166l35 -150l-133 -32l-27 100q-129 -106 -289 -107q-154 0 -255 81t-101 227q0 135 92 212.5t252 82.5h154q90 4 127 45v82q0 74 -62.5 118.5t-140.5 44.5q-184 0 -242 -133l-133 45q86 227 379 228q133 0 238.5 -82t105.5 -209v-553zM709 219v279q-59 -33 -119 -33 h-152q-88 -2 -150.5 -47t-62.5 -133q0 -86 66.5 -131t152.5 -45q146 -1 265 110zM561 1403l230 -305h-160l-144 219l-141 -219h-160l230 305h145z" />
<glyph unicode="&#xe3;" horiz-adv-x="976" d="M854 166l35 -150l-133 -32l-27 100q-129 -106 -289 -107q-154 0 -255 81t-101 227q0 135 92 212.5t252 82.5h154q90 4 127 45v82q0 74 -62.5 118.5t-140.5 44.5q-184 0 -242 -133l-133 45q86 227 379 228q133 0 238.5 -82t105.5 -209v-553zM709 219v279q-59 -33 -119 -33 h-152q-88 -2 -150.5 -47t-62.5 -133q0 -86 66.5 -131t152.5 -45q146 -1 265 110zM721 1294l88 -75q-45 -61 -88 -92t-104.5 -31t-132 54t-119.5 54q-59 0 -111 -76l-84 76q41 61 85 91t110 30q63 0 132.5 -54t116.5 -54q62 -1 107 77z" />
<glyph unicode="&#xe4;" horiz-adv-x="976" d="M854 166l35 -150l-133 -32l-27 100q-129 -106 -289 -107q-154 0 -255 81t-101 227q0 135 92 212.5t252 82.5h154q90 4 127 45v82q0 74 -62.5 118.5t-140.5 44.5q-184 0 -242 -133l-133 45q86 227 379 228q133 0 238.5 -82t105.5 -209v-553zM709 219v279q-59 -33 -119 -33 h-152q-88 -2 -150.5 -47t-62.5 -133q0 -86 66.5 -131t152.5 -45q146 -1 265 110zM786 1212q0 -45 -29.5 -74.5t-72.5 -29.5q-45 0 -75.5 29.5t-30.5 74.5q0 43 30.5 74t75.5 31q43 0 72.5 -31t29.5 -74zM399 1212q0 -45 -30.5 -74.5t-73.5 -29.5q-45 0 -75 29.5t-30 74.5 q0 43 30 74t75 31q43 0 73.5 -31t30.5 -74z" />
<glyph unicode="&#xe5;" horiz-adv-x="976" d="M854 166l35 -150l-133 -32l-27 100q-129 -106 -289 -107q-154 0 -255 81t-101 227q0 135 92 212.5t252 82.5h154q90 4 127 45v82q0 74 -62.5 118.5t-140.5 44.5q-184 0 -242 -133l-133 45q86 227 379 228q133 0 238.5 -82t105.5 -209v-553zM709 219v279q-59 -33 -119 -33 h-152q-88 -2 -150.5 -47t-62.5 -133q0 -86 66.5 -131t152.5 -45q146 -1 265 110zM711 1317q0 -90 -64.5 -155.5t-157 -65.5t-157 65.5t-64.5 155.5t64.5 154.5t157 64.5t157 -64.5t64.5 -154.5zM596 1317q0 45 -32 75.5t-75 30.5q-45 0 -75.5 -30.5t-30.5 -75.5t30.5 -76 t75.5 -31q43 0 75 31t32 76z" />
<glyph unicode="&#xe6;" horiz-adv-x="1574" d="M76 285q0 139 94 217t254 78h137q98 0 127 43v77q0 70 -58.5 118t-135.5 48q-174 0 -238 -135l-135 41q86 233 375 234q188 0 290 -160q115 162 328 162q131 0 220 -71t125 -174.5t36 -234.5v-63h-659q6 -164 80.5 -251t213.5 -87q141 0 234 106l106 -100 q-133 -152 -340 -151q-229 0 -335 153q-152 -158 -367 -158q-152 0 -252 79t-100 229zM715 250q-27 84 -27 246q-51 -33 -113 -33h-149q-84 0 -146.5 -42t-62.5 -128q0 -80 61.5 -127t153.5 -47q146 0 283 131zM836 571h514q-4 133 -62.5 213t-177.5 80q-127 0 -197.5 -80 t-76.5 -213z" />
<glyph unicode="&#xe7;" horiz-adv-x="972" d="M782 250l111 -103q-141 -145 -293 -159l55 -142l-137 -254h-162l183 265l-56 129q-195 18 -297 160.5t-102 349.5q0 225 119 370.5t338 145.5q113 0 190.5 -39t161.5 -127l-111 -103q-113 123 -241 123q-109 0 -178.5 -55t-94 -134t-24.5 -181q0 -160 68.5 -264.5 t228.5 -104.5q128 0 241 123z" />
<glyph unicode="&#xe8;" horiz-adv-x="995" d="M911 541v-74h-667q10 -342 299 -342q152 0 243 102l101 -94q-145 -152 -344 -151q-227 0 -343 141t-116 373q0 229 110.5 371.5t331.5 142.5q186 0 285.5 -130t99.5 -339zM244 573h522q-14 293 -246 293q-249 0 -276 -293zM500 1409l172 -313h-123l-227 313h178z" />
<glyph unicode="&#xe9;" horiz-adv-x="995" d="M911 541v-74h-667q10 -342 299 -342q152 0 243 102l101 -94q-145 -152 -344 -151q-227 0 -343 141t-116 373q0 229 110.5 371.5t331.5 142.5q186 0 285.5 -130t99.5 -339zM244 573h522q-14 293 -246 293q-249 0 -276 -293zM496 1409h176l-226 -313h-124z" />
<glyph unicode="&#xea;" horiz-adv-x="995" d="M911 541v-74h-667q10 -342 299 -342q152 0 243 102l101 -94q-145 -152 -344 -151q-227 0 -343 141t-116 373q0 229 110.5 371.5t331.5 142.5q186 0 285.5 -130t99.5 -339zM244 573h522q-14 293 -246 293q-249 0 -276 -293zM571 1403l230 -305h-162l-141 219l-142 -219 h-159l227 305h147z" />
<glyph unicode="&#xeb;" horiz-adv-x="995" d="M911 541v-74h-667q10 -342 299 -342q152 0 243 102l101 -94q-145 -152 -344 -151q-227 0 -343 141t-116 373q0 229 110.5 371.5t331.5 142.5q186 0 285.5 -130t99.5 -339zM244 573h522q-14 293 -246 293q-249 0 -276 -293zM797 1212q0 -45 -31 -74.5t-74 -29.5 t-73.5 29.5t-30.5 74.5q0 43 30.5 74t73.5 31t74 -31t31 -74zM408 1212q0 -45 -31 -74.5t-74 -29.5t-73.5 29.5t-30.5 74.5q0 43 30.5 74t73.5 31t74 -31t31 -74z" />
<glyph unicode="&#xec;" horiz-adv-x="462" d="M307 993v-993h-151v993h151zM109 1409l172 -313h-123l-228 313h179z" />
<glyph unicode="&#xed;" horiz-adv-x="460" d="M305 993v-993h-151v993h151zM352 1409h176l-223 -313h-127z" />
<glyph unicode="&#xee;" horiz-adv-x="460" d="M309 993v-993h-151v993h151zM303 1403l229 -305h-161l-142 219l-141 -219h-160l230 305h145z" />
<glyph unicode="&#xef;" horiz-adv-x="460" d="M309 993v-993h-151v993h151zM528 1212q0 -45 -29.5 -74.5t-72.5 -29.5t-75 30.5t-32 73.5t32 74t75 31t72.5 -31t29.5 -74zM141 1212q0 -45 -30.5 -74.5t-73.5 -29.5t-74 29.5t-31 74.5q0 43 31 74t74 31t73.5 -31t30.5 -74z" />
<glyph unicode="&#xf0;" horiz-adv-x="1122" d="M987 494q0 -512 -426 -512q-225 0 -325.5 140t-100.5 372q0 508 426 507q74 0 150 -32l-86 186h-248v123h194l-116 258h141l115 -258h186v-123h-129q121 -254 158 -317q61 -119 61 -344zM850 494q0 82 -11.5 143t-41 117.5t-89 86t-147.5 29.5t-148.5 -30.5t-89 -88 t-40 -118t-11.5 -139.5q0 -82 11.5 -143.5t41 -118t89 -86t145.5 -29.5q88 0 148.5 30.5t90 88t41 118t11.5 140.5z" />
<glyph unicode="&#xf1;" horiz-adv-x="1058" d="M940 563v-563h-154v559q0 145 -56 223t-200 78q-98 0 -167.5 -66.5t-69.5 -150.5v-643h-154v993h131l4 -110q88 131 263 131q403 0 403 -451zM760 1294l86 -75q-43 -61 -86 -92t-105 -31q-63 0 -132.5 54t-119.5 54q-59 0 -110 -76l-84 76q41 61 85 91t109 30 q63 0 132 -54t116 -54q64 -1 109 77z" />
<glyph unicode="&#xf2;" horiz-adv-x="1028" d="M946 496q0 -236 -103.5 -375t-328.5 -139t-327.5 138t-102.5 375.5t102.5 377t327.5 139.5t328.5 -139t103.5 -377zM788 496q0 61 -6 109t-23.5 98.5t-47 83t-79.5 54t-118 21.5t-118 -21.5t-79.5 -54t-47 -83t-23.5 -98.5t-6 -109q0 -78 10 -136.5t37.5 -114t85 -85 t141.5 -29.5q158 0 216 100.5t58 264.5zM516 1409l172 -313h-123l-225 313h176z" />
<glyph unicode="&#xf3;" horiz-adv-x="1028" d="M946 496q0 -236 -103.5 -375t-328.5 -139t-327.5 138t-102.5 375.5t102.5 377t327.5 139.5t328.5 -139t103.5 -377zM788 496q0 61 -6 109t-23.5 98.5t-47 83t-79.5 54t-118 21.5t-118 -21.5t-79.5 -54t-47 -83t-23.5 -98.5t-6 -109q0 -78 10 -136.5t37.5 -114t85 -85 t141.5 -29.5q158 0 216 100.5t58 264.5zM514 1409h174l-223 -313h-125z" />
<glyph unicode="&#xf4;" horiz-adv-x="1028" d="M946 496q0 -236 -103.5 -375t-328.5 -139t-327.5 138t-102.5 375.5t102.5 377t327.5 139.5t328.5 -139t103.5 -377zM788 496q0 61 -6 109t-23.5 98.5t-47 83t-79.5 54t-118 21.5t-118 -21.5t-79.5 -54t-47 -83t-23.5 -98.5t-6 -109q0 -78 10 -136.5t37.5 -114t85 -85 t141.5 -29.5q158 0 216 100.5t58 264.5zM588 1403l229 -305h-162l-141 219l-141 -219h-160l229 305h146z" />
<glyph unicode="&#xf5;" horiz-adv-x="1028" d="M946 496q0 -236 -103.5 -375t-328.5 -139t-327.5 138t-102.5 375.5t102.5 377t327.5 139.5t328.5 -139t103.5 -377zM788 496q0 61 -6 109t-23.5 98.5t-47 83t-79.5 54t-118 21.5t-118 -21.5t-79.5 -54t-47 -83t-23.5 -98.5t-6 -109q0 -78 10 -136.5t37.5 -114t85 -85 t141.5 -29.5q158 0 216 100.5t58 264.5zM748 1294l86 -75q-47 -61 -89.5 -92t-103.5 -31t-131 54t-119 54q-59 0 -110 -76l-84 76q41 61 85 91t107.5 30t133 -54t116.5 -54q60 -1 109 77z" />
<glyph unicode="&#xf6;" horiz-adv-x="1028" d="M946 496q0 -236 -103.5 -375t-328.5 -139t-327.5 138t-102.5 375.5t102.5 377t327.5 139.5t328.5 -139t103.5 -377zM788 496q0 61 -6 109t-23.5 98.5t-47 83t-79.5 54t-118 21.5t-118 -21.5t-79.5 -54t-47 -83t-23.5 -98.5t-6 -109q0 -78 10 -136.5t37.5 -114t85 -85 t141.5 -29.5q158 0 216 100.5t58 264.5zM813 1212q0 -45 -29.5 -74.5t-72.5 -29.5q-45 0 -76 29.5t-31 74.5q0 43 31 74t76 31q41 0 71.5 -31t30.5 -74zM426 1212q0 -43 -30.5 -73.5t-73.5 -30.5q-45 0 -75 29.5t-30 74.5q0 43 29.5 74t75.5 31q41 0 72.5 -31t31.5 -74z" />
<glyph unicode="&#xf7;" horiz-adv-x="1073" d="M633 887q0 -41 -30 -71t-70.5 -30t-70.5 30t-30 71t30 70.5t70.5 29.5t70.5 -29.5t30 -70.5zM958 623v-123h-843v123h843zM633 235.5q0 -40.5 -30 -70.5t-70.5 -30t-70.5 30t-30 70.5t30 70.5t70.5 30t70.5 -30t30 -70.5z" />
<glyph unicode="&#xf8;" horiz-adv-x="1083" d="M946 494q0 -512 -432 -512q-113 0 -197 41l-24 -41h-119l49 94q-139 139 -139 418q0 238 102.5 377t327.5 139q109 0 195 -43l26 47h123l-53 -101q141 -138 141 -419zM788 494q0 160 -63 258l-338 -588q55 -33 127 -33q68 0 118 20.5t79.5 53.5t47 82t23.5 98.5t6 108.5z M639 827q-55 31 -125 31q-84 0 -141.5 -29.5t-85 -85t-37.5 -115t-10 -134.5q0 -158 63 -256z" />
<glyph unicode="&#xf9;" horiz-adv-x="1052" d="M920 993v-993h-132l-4 104q-111 -121 -260 -120q-406 0 -405 432v577h153v-569q0 -143 54.5 -217t199.5 -74q88 0 164 57.5t76 147.5v655h154zM526 1409l174 -313h-125l-225 313h176z" />
<glyph unicode="&#xfa;" horiz-adv-x="1052" d="M920 993v-993h-132l-4 104q-111 -121 -260 -120q-406 0 -405 432v577h153v-569q0 -143 54.5 -217t199.5 -74q88 0 164 57.5t76 147.5v655h154zM524 1409h176l-225 -313h-125z" />
<glyph unicode="&#xfb;" horiz-adv-x="1052" d="M920 993v-993h-132l-4 104q-111 -121 -260 -120q-406 0 -405 432v577h153v-569q0 -143 54.5 -217t199.5 -74q88 0 164 57.5t76 147.5v655h154zM598 1403l229 -305h-159l-144 219l-141 -219h-160l230 305h145z" />
<glyph unicode="&#xfc;" horiz-adv-x="1052" d="M920 993v-993h-132l-4 104q-111 -121 -260 -120q-406 0 -405 432v577h153v-569q0 -143 54.5 -217t199.5 -74q88 0 164 57.5t76 147.5v655h154zM823 1212q0 -45 -29.5 -74.5t-72.5 -29.5t-75 30.5t-32 73.5t32 74t75 31t72.5 -31t29.5 -74zM436 1212q0 -45 -30.5 -74.5 t-73.5 -29.5t-74 29.5t-31 74.5q0 43 31 74t74 31t73.5 -31t30.5 -74z" />
<glyph unicode="&#xfd;" horiz-adv-x="987" d="M780 993h164l-467 -1237q-43 -117 -120.5 -163t-202.5 -46h-29v136h27q82 0 122.5 28.5t65.5 91.5l72 193l-369 997h166l283 -800zM492 1409h176l-224 -313h-127z" />
<glyph unicode="&#xfe;" horiz-adv-x="1052" d="M971 500q0 -150 -37 -260.5t-132 -183t-243 -72.5q-158 0 -240 98v-520h-157v1868h157v-517q84 102 238 103q219 0 316.5 -143.5t97.5 -372.5zM813 500q0 74 -9 130t-35 112.5t-79 87t-133 30.5q-100 0 -169 -59.5t-69 -155.5v-291q0 -98 70 -155.5t168 -57.5 q82 0 135 32t78 89t34 111.5t9 126.5z" />
<glyph unicode="&#xff;" horiz-adv-x="987" d="M780 993h164l-467 -1237q-43 -117 -120.5 -163t-202.5 -46h-29v136h27q82 0 122.5 28.5t65.5 91.5l72 193l-369 997h166l283 -800zM793 1212q0 -45 -31 -74.5t-74 -29.5t-73.5 29.5t-30.5 74.5q0 43 30.5 74t73.5 31t74 -31t31 -74zM403 1212q0 -45 -30.5 -74.5 t-73.5 -29.5t-73.5 29.5t-30.5 74.5q0 43 30.5 74t73.5 31t73.5 -31t30.5 -74z" />
<glyph unicode="&#x152;" horiz-adv-x="2064" d="M1958 0h-889v217q-125 -236 -410 -235q-154 0 -267 60t-177.5 165.5t-95.5 232.5t-31 274.5t31 274.5t95.5 232.5t178 166t266.5 60.5q125 0 236 -55.5t174 -175.5v213h889v-162h-727v-449h631v-157h-631v-500h727v-162zM1067 714.5q0 571.5 -408 571.5 q-121 0 -205.5 -50t-126.5 -137t-59.5 -180.5t-17.5 -203.5q0 -86 10 -162t38 -153.5t72 -132t117.5 -89.5t171.5 -35q408 0 408 571.5z" />
<glyph unicode="&#x153;" horiz-adv-x="1673" d="M1464 236l109 -103q-141 -152 -346 -151q-244 0 -365 198q-117 -199 -354 -198q-424 0 -424 512q0 238 100.5 377t323.5 139q238 0 352 -201q121 199 350 199q131 0 220.5 -70t125 -173t35.5 -235v-65h-657q14 -338 293 -338q139 0 237 109zM936 571h510 q-14 293 -240 293q-243 0 -270 -293zM778 493.5q0 75.5 -11 135t-39 115t-83 85t-137 29.5q-156 0 -213 -100.5t-57 -264t57 -263t213 -99.5q82 0 137 29.5t83 84t39 114t11 135z" />
<glyph unicode="&#x178;" horiz-adv-x="1202" d="M975 1430h182l-473 -957v-473h-164v473l-473 957h182l373 -771zM899 1665q0 -45 -30.5 -74.5t-73.5 -29.5t-74 29.5t-31 74.5q0 43 31 73.5t74 30.5t73.5 -30.5t30.5 -73.5zM510 1665q0 -45 -30.5 -74.5t-74 -29.5t-73 29.5t-29.5 74.5q0 43 29.5 73.5t73 30.5t74 -30.5 t30.5 -73.5z" />
<glyph unicode="&#x2c6;" horiz-adv-x="1050" d="M596 1403l229 -305h-161l-142 219l-141 -219h-160l228 305h147z" />
<glyph unicode="&#x2dc;" horiz-adv-x="1048" d="M754 1294l86 -75q-45 -61 -88 -92t-104.5 -31t-132.5 54t-120 54q-57 0 -108 -76l-86 76q80 121 194 121q63 0 133 -54t117 -54q60 -1 109 77z" />
<glyph unicode="&#x2000;" horiz-adv-x="993" />
<glyph unicode="&#x2001;" horiz-adv-x="1988" />
<glyph unicode="&#x2002;" horiz-adv-x="993" />
<glyph unicode="&#x2003;" horiz-adv-x="1988" />
<glyph unicode="&#x2004;" horiz-adv-x="661" />
<glyph unicode="&#x2005;" horiz-adv-x="495" />
<glyph unicode="&#x2006;" horiz-adv-x="329" />
<glyph unicode="&#x2007;" horiz-adv-x="329" />
<glyph unicode="&#x2008;" horiz-adv-x="247" />
<glyph unicode="&#x2009;" horiz-adv-x="397" />
<glyph unicode="&#x200a;" horiz-adv-x="108" />
<glyph unicode="&#x2010;" horiz-adv-x="821" d="M692 621v-129h-563v129h563z" />
<glyph unicode="&#x2011;" horiz-adv-x="821" d="M692 621v-129h-563v129h563z" />
<glyph unicode="&#x2012;" horiz-adv-x="821" d="M692 621v-129h-563v129h563z" />
<glyph unicode="&#x2013;" horiz-adv-x="1105" d="M987 621v-129h-870v129h870z" />
<glyph unicode="&#x2014;" horiz-adv-x="1605" d="M1489 621v-129h-1372v129h1372z" />
<glyph unicode="&#x2018;" horiz-adv-x="505" d="M311 1507h49l-12 -325q-2 -39 -28.5 -67t-65.5 -28t-67.5 29t-24.5 66l12 100z" />
<glyph unicode="&#x2019;" horiz-adv-x="505" d="M346 1425l-12 -100l-139 -227l-48 2l11 323q2 39 28.5 67t65.5 28t67.5 -28t26.5 -65z" />
<glyph unicode="&#x201a;" horiz-adv-x="505" d="M352 115l-10 -101l-137 -225h-49l10 324q2 39 28.5 66.5t63.5 27.5q41 0 69.5 -27.5t24.5 -64.5z" />
<glyph unicode="&#x201c;" horiz-adv-x="819" d="M293 1507h49l-12 -325q-2 -39 -29 -67t-65.5 -28t-67.5 29t-25 66l13 100zM633 1507h49l-12 -325q-2 -39 -29 -67t-65.5 -28t-67.5 29t-25 66l13 100z" />
<glyph unicode="&#x201d;" horiz-adv-x="819" d="M526 1087h-49l12 326q2 39 29 66.5t66 27.5t67.5 -28.5t24.5 -65.5l-12 -100zM186 1087h-49l13 326q2 39 28.5 66.5t65.5 27.5t67.5 -28.5t24.5 -65.5l-12 -100z" />
<glyph unicode="&#x201e;" horiz-adv-x="819" d="M526 -236h-49l12 326q2 39 29 66.5t66 27.5t67.5 -28.5t24.5 -65.5l-12 -100zM186 -236h-49l13 326q2 39 28.5 66.5t65.5 27.5t67.5 -28.5t24.5 -65.5l-12 -100z" />
<glyph unicode="&#x2022;" horiz-adv-x="983" d="M815 688q0 -135 -94 -229t-229 -94q-133 0 -228.5 94t-95.5 229q0 133 95 228.5t229 95.5q135 0 229 -95.5t94 -228.5z" />
<glyph unicode="&#x2026;" horiz-adv-x="1255" d="M1112 98q0 -49 -35 -82.5t-82 -33.5t-81.5 33.5t-34.5 82.5q0 47 34.5 82t81.5 35t82 -35t35 -82zM745 98q0 -49 -34.5 -82.5t-81.5 -33.5q-49 0 -84 33.5t-35 82.5q0 47 35 82t84 35q47 0 81.5 -35t34.5 -82zM379 98q0 -49 -35 -82.5t-84 -33.5q-47 0 -81 33.5t-34 82.5 q0 47 34 82t81 35q49 0 84 -35t35 -82z" />
<glyph unicode="&#x202f;" horiz-adv-x="397" />
<glyph unicode="&#x2039;" horiz-adv-x="663" d="M106 573l441 408v-170l-320 -291l320 -293v-172l-441 410v108z" />
<glyph unicode="&#x203a;" horiz-adv-x="663" d="M547 573v-108l-441 -410v172l320 293l-320 291v170z" />
<glyph unicode="&#x205f;" horiz-adv-x="495" />
<glyph unicode="&#x20ac;" horiz-adv-x="1333" d="M1128 283l107 -117q-92 -100 -181 -142t-229 -42q-225 0 -372.5 136t-194.5 367h-158l25 119h115q-6 82 -2 178h-138l25 117h129q37 248 181.5 398.5t389.5 150.5q131 0 225.5 -42t180.5 -134l-109 -119q-133 133 -297 133q-170 0 -270 -105.5t-129 -281.5h467l-25 -117 h-465q-2 -106 5 -178h485l-25 -119h-438q39 -160 140.5 -251t254.5 -91q168 1 303 140z" />
<glyph unicode="&#x2122;" horiz-adv-x="978" d="M868 1430v-431h-63v283l-111 -283h-51l-111 283v-283h-61v431h61l136 -345l137 345h63zM412 1430v-62h-129v-369h-62v369h-127v62h318z" />
<glyph unicode="&#xe000;" horiz-adv-x="995" d="M0 995h995v-995h-995v995z" />
<glyph unicode="&#xfb01;" horiz-adv-x="1097" d="M971 1348q0 -43 -31.5 -75t-77 -32t-76 32t-30.5 75q0 45 30.5 76.5t76 31.5t77 -31.5t31.5 -76.5zM938 993v-993h-153v993h153zM575 1430v-130q-123 -8 -173 -66t-50 -185v-56h195v-133h-195v-860h-149v860h-101v133h101v88q0 166 86.5 252.5t285.5 96.5z" />
<glyph unicode="&#xfb02;" horiz-adv-x="1089" d="M1018 135v-133q-258 6 -258 246v1052h-185q-121 0 -172 -61t-51 -190v-56h195v-133h-195v-860h-149v860h-101v133h101v88q0 348 372 349h334v-1182q0 -105 109 -113z" />
<glyph unicode="&#xfb03;" horiz-adv-x="1683" d="M788 860h-436v-860h-149v860h-101v133h101v88q0 166 87 252t285 97v-130q-123 -8 -173 -66t-50 -185v-56h436v88q0 166 87.5 252t285.5 97v-130q-123 -8 -174 -66t-51 -185v-56h586v-993h-152v860h-434v-860h-148v860zM1554 1348q0 -43 -30.5 -75t-75.5 -32t-77 32 t-32 75q0 45 32 76.5t77 31.5t75.5 -31.5t30.5 -76.5z" />
<glyph unicode="&#xfb04;" horiz-adv-x="1675" d="M575 1430v-130q-123 -8 -173 -66t-50 -185v-56h436v88q0 348 373 349h332v-1182q0 -104 111 -113v-133q-258 6 -258 246v1052h-185q-121 0 -173 -61t-52 -190v-56h197v-133h-197v-860h-148v860h-436v-860h-149v860h-101v133h101v88q0 166 86.5 252.5t285.5 96.5z" />
<glyph horiz-adv-x="581" />
</font>
</defs>
</svg>
